<?xml version="1.0" standalone="no"?><!DOCTYPE svg PUBLIC "-//W3C//DTD SVG 1.1//EN" "http://www.w3.org/Graphics/SVG/1.1/DTD/svg11.dtd"><svg t="1743053427217" class="icon" viewBox="0 0 1024 1024" version="1.1" xmlns="http://www.w3.org/2000/svg" p-id="1048" data-darkreader-inline-fill="" xmlns:xlink="http://www.w3.org/1999/xlink" width="200" height="200"><path d="M967.68 662.72a478.208 478.208 0 0 1-215.68 264.96 478.208 478.208 0 0 1-337.536 54.336c98.432-14.72 203.712-50.944 305.536-109.76 99.136-57.216 181.44-128 242.944-203.584l4.8-5.952z m9.472-269.76a476.8 476.8 0 0 1 14.464 97.92c-73.792 104.768-186.496 206.656-326.016 287.168-139.52 80.576-284.16 127.296-411.776 138.688a475.584 475.584 0 0 1-77.632-61.568c130.688 4.224 296.32-39.552 457.408-132.544 152.512-88.064 268.864-201.728 333.248-311.424l10.24-18.24zM908.16 240.896a486.72 486.72 0 0 1 35.84 61.824C867.392 414.272 737.792 529.472 576 622.848c-161.728 93.44-326.208 148.096-461.184 158.72a487.232 487.232 0 0 1-35.712-62.08c126.208-3.392 295.936-54.528 464.896-152.064 160.256-92.544 284.672-206.528 353.408-309.76l10.752-16.768zM736.512 87.68c21.44 11.328 42.112 24.32 61.824 38.912C780.032 243.2 662.528 380.736 492.8 478.72 323.072 576.768 145.088 609.728 35.008 567.232a486.848 486.848 0 0 1-2.752-72.96c76.672 52.288 254.272 29.696 428.544-70.976 167.296-96.576 273.92-231.744 276.032-324.288l-0.32-11.328zM565.76 35.008c22.016 2.496 43.776 6.464 65.152 11.968 0.576 91.584-89.664 204.288-224.512 282.112C271.616 406.912 128.896 428.8 49.792 382.592c5.952-21.376 13.44-42.24 22.208-62.592 46.208 40.768 174.976 27.2 302.4-46.336C499.84 201.28 575.552 98.624 566.336 37.888l-0.64-2.88zM434.56 57.856c13.248 22.976-38.016 77.44-114.56 121.6-76.544 44.16-149.312 61.376-162.56 38.4-7.808-13.568 6.848-38.144 36.032-65.088a482.176 482.176 0 0 1 78.528-56.448l16.064-8.96A484.608 484.608 0 0 1 359.68 56.704C397.824 44.8 426.688 44.224 434.56 57.856z" fill="#2C374D" p-id="1049" data-darkreader-inline-fill="" style="--darkreader-inline-fill: var(--darkreader-background-2c374d, #232c3e);"></path></svg>