<?xml version="1.0" standalone="no"?><!DOCTYPE svg PUBLIC "-//W3C//DTD SVG 1.1//EN" "http://www.w3.org/Graphics/SVG/1.1/DTD/svg11.dtd"><svg t="1743053106760" class="icon" viewBox="0 0 1024 1024" version="1.1" xmlns="http://www.w3.org/2000/svg" p-id="1525" data-darkreader-inline-fill="" xmlns:xlink="http://www.w3.org/1999/xlink" width="200" height="200"><path d="M1024 42.666667a42.666667 42.666667 0 0 0-42.666667-42.666667H42.666667a42.666667 42.666667 0 0 0-42.666667 42.666667v938.666666a42.666667 42.666667 0 0 0 42.666667 42.666667h938.666666a42.666667 42.666667 0 0 0 42.666667-42.666667V42.666667z m-85.333333 42.666666v853.333334H85.333333V85.333333h853.333334z" p-id="1526"></path><path d="M768 298.666667a42.666667 42.666667 0 0 0-42.666667-42.666667H298.666667a42.666667 42.666667 0 0 0-42.666667 42.666667v73.685333H213.333333a42.666667 42.666667 0 0 0-42.666666 42.666667V725.333333a42.666667 42.666667 0 0 0 42.666666 42.666667h597.333334a42.666667 42.666667 0 0 0 42.666666-42.666667V415.018667a42.666667 42.666667 0 0 0-42.666666-42.666667h-42.666667V298.666667z m0 159.018666V682.666667H256v-224.981334h85.333333V341.333333h341.333334v116.352h85.333333z" p-id="1527"></path><path d="M384 554.666667a42.666667 42.666667 0 0 1 42.666667 42.666666v128a42.666667 42.666667 0 1 1-85.333334 0v-128a42.666667 42.666667 0 0 1 42.666667-42.666666zM512 554.666667a42.666667 42.666667 0 0 1 42.666667 42.666666v128a42.666667 42.666667 0 1 1-85.333334 0v-128a42.666667 42.666667 0 0 1 42.666667-42.666666zM640 554.666667a42.666667 42.666667 0 0 1 42.666667 42.666666v128a42.666667 42.666667 0 1 1-85.333334 0v-128a42.666667 42.666667 0 0 1 42.666667-42.666666z" p-id="1528"></path></svg>