<?xml version="1.0" standalone="no"?><!DOCTYPE svg PUBLIC "-//W3C//DTD SVG 1.1//EN" "http://www.w3.org/Graphics/SVG/1.1/DTD/svg11.dtd"><svg t="1739985950965" class="icon" viewBox="0 0 1024 1024" version="1.1" xmlns="http://www.w3.org/2000/svg" p-id="2998" data-darkreader-inline-fill="" xmlns:xlink="http://www.w3.org/1999/xlink" width="200" height="200"><path d="M893.12 297.6l-160-164.48A156.8 156.8 0 0 0 620.8 86.4h-416a118.72 118.72 0 0 0-118.4 118.72v613.76a118.72 118.72 0 0 0 118.72 118.72h613.76a118.72 118.72 0 0 0 118.72-118.72V406.72a154.88 154.88 0 0 0-44.48-109.12z m-212.16 556.8h-320v-197.12a40 40 0 0 1 39.68-39.68H640a40 40 0 0 1 39.68 39.68z m173.44-35.52a35.52 35.52 0 0 1-35.52 35.52h-54.72v-197.12A123.2 123.2 0 0 0 640 534.4h-238.08a122.88 122.88 0 0 0-122.88 122.88v197.12H205.12a35.52 35.52 0 0 1-35.52-35.52V205.12A35.52 35.52 0 0 1 205.12 169.6h416A72.96 72.96 0 0 1 672 192l160 164.48a72.32 72.32 0 0 1 20.8 50.88z" p-id="2999" fill="#afacab" data-darkreader-inline-fill="" style="--darkreader-inline-fill: var(--darkreader-background-afacab, #464c4f);"></path><path d="M640 278.4h-288a41.6 41.6 0 0 0 0 83.2h288a41.6 41.6 0 0 0 0-83.2z" p-id="3000" fill="#afacab" data-darkreader-inline-fill="" style="--darkreader-inline-fill: var(--darkreader-background-afacab, #464c4f);"></path></svg>