<?xml version="1.0" standalone="no"?><!DOCTYPE svg PUBLIC "-//W3C//DTD SVG 1.1//EN" "http://www.w3.org/Graphics/SVG/1.1/DTD/svg11.dtd"><svg t="1736421534779" class="icon" viewBox="0 0 1024 1024" version="1.1" xmlns="http://www.w3.org/2000/svg" p-id="2714" data-darkreader-inline-fill="" xmlns:xlink="http://www.w3.org/1999/xlink" width="200" height="200"><path d="M252.970667 869.76L192.64 809.386667 469.333333 532.736v-41.386667L192.64 214.570667l60.330667-60.330667L469.333333 370.602667V85.333333h85.333334l241.365333 241.365334L610.730667 512l185.301333 185.301333L554.666667 938.666667h-85.333334v-285.269334l-216.362666 216.32zM554.666667 818.005333l120.661333-120.704L554.666667 576.64v241.365333z m0-612.010666v241.365333l120.661333-120.661333L554.666667 205.994667z" fill="#9ca3af" p-id="2715" data-darkreader-inline-fill="" style="--darkreader-inline-fill: #4b5154;"></path><path d="M341.333333 512a64 64 0 1 1-128 0 64 64 0 0 1 128 0zM832 576a64 64 0 1 0 0-128 64 64 0 0 0 0 128z" fill="#9ca3af" p-id="2716" data-darkreader-inline-fill="" style="--darkreader-inline-fill: #4b5154;"></path></svg>