<?xml version="1.0" standalone="no"?><!DOCTYPE svg PUBLIC "-//W3C//DTD SVG 1.1//EN" "http://www.w3.org/Graphics/SVG/1.1/DTD/svg11.dtd"><svg t="1736421752467" class="icon" viewBox="0 0 1024 1024" version="1.1" xmlns="http://www.w3.org/2000/svg" p-id="12459" data-darkreader-inline-fill="" xmlns:xlink="http://www.w3.org/1999/xlink" width="200" height="200"><path d="M870.4 162.304c-9.728-9.728-25.6-9.728-35.328 0l-75.264 75.264c-42.496-33.28-95.232-51.2-149.504-51.2-64.512 0-126.976 25.6-172.544 71.68l-26.112 26.112c-9.728 9.728-9.728 25.6 0 35.328l309.76 309.76c4.608 4.608 11.264 7.168 17.92 7.168 6.656 0 12.8-2.56 17.92-7.168l26.112-26.112c90.112-90.112 95.744-234.496 12.8-331.264L870.4 197.632c9.728-9.728 10.24-25.6 0-35.328zM747.52 568.32l-8.192 8.192L464.896 302.08l8.192-8.192c75.776-75.776 198.656-75.776 274.432 0s75.776 198.656 0 274.432z m-185.344 80.384l39.936-39.936c9.728-9.728 9.728-25.6 0-35.328-9.728-9.728-25.6-9.728-35.328 0l-39.936 39.936-94.208-94.208 39.936-39.936c9.728-9.728 9.728-25.6 0-35.328-9.728-9.728-25.6-9.728-35.328 0l-39.936 39.936L322.56 409.088c-4.608-4.608-11.264-7.168-17.92-7.168-6.656 0-12.8 2.56-17.92 7.168L261.12 435.2c-83.968 83.968-95.232 216.064-27.136 313.344l-77.824 77.824c-9.728 9.728-9.728 25.6 0 35.328 9.728 9.728 25.6 9.728 35.328 0l75.264-75.264c45.056 42.496 104.96 66.048 166.912 66.048 64.512 0 126.976-25.6 172.544-71.68l26.112-26.112c9.728-9.728 9.728-25.6 0-35.328l-70.144-70.656z m8.704 96.256c-75.776 75.776-198.656 75.776-274.432 0-75.776-75.776-75.776-198.656 0-274.432l8.192-8.192 74.752 74.752 129.536 129.536 70.144 70.144-8.192 8.192z" p-id="12460" fill="#1890ff" data-darkreader-inline-fill="" style="--darkreader-inline-fill: #0062be;"></path><path d="M295.424 98.816L158.208 217.6 231.936 240.64 174.08 330.752l146.944-109.056-77.312-22.528M840.704 652.8l-137.216 118.784 73.728 23.552-57.344 90.112 146.944-109.056-77.312-22.528" p-id="12461" fill="#1890ff" data-darkreader-inline-fill="" style="--darkreader-inline-fill: #0062be;"></path></svg>