<?xml version="1.0" standalone="no"?><!DOCTYPE svg PUBLIC "-//W3C//DTD SVG 1.1//EN" "http://www.w3.org/Graphics/SVG/1.1/DTD/svg11.dtd"><svg t="1733649639023" class="icon" viewBox="0 0 1024 1024" version="1.1" xmlns="http://www.w3.org/2000/svg" p-id="1010" xmlns:xlink="http://www.w3.org/1999/xlink" width="200" height="200"><path d="M277.504 775.7312H149.1968a49.8688 49.8688 0 0 1-49.8176-51.6608l4.4544-125.7984a66.8672 66.8672 0 0 1 19.968-45.4656L583.68 100.864a66.56 66.56 0 0 1 47.0016-19.2512h0.6144a66.56 66.56 0 0 1 47.2576 20.0704L784.9472 209.92a67.1232 67.1232 0 0 1-0.8192 94.9248l-459.5712 451.6352a66.8672 66.8672 0 0 1-47.0528 19.2512z m-116.3264-61.44H277.504a5.8368 5.8368 0 0 0 3.9936-1.6384L741.0688 261.12a5.7856 5.7856 0 0 0 1.6896-3.9936 5.6832 5.6832 0 0 0-1.6384-3.9936L634.88 144.7424a5.4272 5.4272 0 0 0-3.9424-1.6896 5.12 5.12 0 0 0-4.0448 1.5872L166.912 596.6336a5.632 5.632 0 0 0-1.6896 3.84zM911.0016 929.8944H108.8512a30.72 30.72 0 1 1 0-61.44h802.1504a30.72 30.72 0 0 1 0 61.44zM911.0016 724.48h-241.408a30.72 30.72 0 1 1 0-61.44h241.408a30.72 30.72 0 0 1 0 61.44z" fill="#1890ff" p-id="1011"></path></svg>