<?xml version="1.0" standalone="no"?><!DOCTYPE svg PUBLIC "-//W3C//DTD SVG 1.1//EN" "http://www.w3.org/Graphics/SVG/1.1/DTD/svg11.dtd"><svg t="1736421908176" class="icon" viewBox="0 0 1024 1024" version="1.1" xmlns="http://www.w3.org/2000/svg" p-id="18114" data-darkreader-inline-fill="" xmlns:xlink="http://www.w3.org/1999/xlink" width="200" height="200"><path d="M460.42 453.96H314.45c-37.5 0-68-30.51-68-68v-70.37c0-37.5 30.51-68 68-68h145.97c37.5 0 68 30.51 68 68v70.37c0 37.49-30.51 68-68 68zM314.45 311.58c-2.21 0-4 1.8-4 4v70.37c0 2.21 1.8 4 4 4h145.97c2.21 0 4-1.8 4-4v-70.37c0-2.21-1.8-4-4-4H314.45zM709.55 778.01H563.58c-37.5 0-68-30.51-68-68v-70.37c0-37.5 30.51-68 68-68h145.97c37.5 0 68 30.51 68 68v70.37c0.01 37.5-30.5 68-68 68zM563.58 635.63c-2.21 0-4 1.8-4 4V710c0 2.21 1.8 4 4 4h145.97c2.21 0 4-1.8 4-4v-70.37c0-2.21-1.8-4-4-4H563.58z" fill="#9ca3af" p-id="18115" data-darkreader-inline-fill="" style="--darkreader-inline-fill: #4b5154;"></path><path d="M644.16 582.65h-64v-38.28H389.81c-17.67 0-32-14.33-32-32v-73.64h64v41.64h190.35c17.67 0 32 14.33 32 32v70.28z" fill="#9ca3af" p-id="18116" data-darkreader-inline-fill="" style="--darkreader-inline-fill: #4b5154;"></path><path d="M742.57 957.54H281.43c-86.02 0-156-69.98-156-156V220.85c0-86.02 69.98-156 156-156h461.15c86.02 0 156 69.98 156 156v580.69c-0.01 86.01-69.99 156-156.01 156zM281.43 128.85c-50.73 0-92 41.27-92 92v580.69c0 50.73 41.27 92 92 92h461.15c50.73 0 92-41.27 92-92V220.85c0-50.73-41.27-92-92-92H281.43z" fill="#9ca3af" p-id="18117" data-darkreader-inline-fill="" style="--darkreader-inline-fill: #4b5154;"></path></svg>