<?xml version="1.0" standalone="no"?><!DOCTYPE svg PUBLIC "-//W3C//DTD SVG 1.1//EN" "http://www.w3.org/Graphics/SVG/1.1/DTD/svg11.dtd"><svg t="1736423211309" class="icon" viewBox="0 0 1024 1024" version="1.1" xmlns="http://www.w3.org/2000/svg" p-id="30935" data-darkreader-inline-fill="" xmlns:xlink="http://www.w3.org/1999/xlink" width="200" height="200"><path d="M860.6208 107.52c33.67936 0 60.9792 29.7984 60.9792 66.56v558.08c0 36.7616-27.29984 66.56-60.9792 66.56H568.32v46.08h199.68a10.24 10.24 0 0 1 10.24 10.24v51.2a10.24 10.24 0 0 1-10.24 10.24H296.96a10.24 10.24 0 0 1-10.24-10.24v-51.2a10.24 10.24 0 0 1 10.24-10.24h199.68v-46.08H199.2192c-33.1776 0-60.16-28.91776-60.95872-64.9216L138.24 732.16V174.08c0-36.7616 27.29984-66.56 60.9792-66.56zM855.04 179.2H204.8v547.84h650.24V179.2z m-325.12 35.84c65.59744 0 118.93248 52.49024 120.2944 117.76H732.16c33.93024 0 61.44 27.50976 61.44 61.44v215.04c0 33.93024-27.50976 61.44-61.44 61.44H327.68c-33.93024 0-61.44-27.50976-61.44-61.44V394.24c0-33.93024 27.50976-61.44 61.44-61.44h81.9456c1.36192-65.26976 54.69696-117.76 120.2944-117.76zM721.92 404.48H337.92v194.56h384V404.48zM445.44 460.8a10.24 10.24 0 0 1 10.24 10.24v51.2a10.24 10.24 0 0 1-10.24 10.24H394.24a10.24 10.24 0 0 1-10.24-10.24V471.04a10.24 10.24 0 0 1 10.24-10.24h51.2z m209.92 0a10.24 10.24 0 0 1 10.24 10.24v51.2a10.24 10.24 0 0 1-10.24 10.24H506.88a10.24 10.24 0 0 1-10.24-10.24V471.04a10.24 10.24 0 0 1 10.24-10.24h148.48z m-125.44-174.08c-26.0096 0-47.24224 20.40832-48.57344 46.08h97.14688c-1.3312-25.67168-22.56896-46.08-48.57344-46.08z" fill="#1890ff" p-id="30936" data-darkreader-inline-fill="" style="--darkreader-inline-fill: #0062be;"></path></svg>