<?xml version="1.0" standalone="no"?><!DOCTYPE svg PUBLIC "-//W3C//DTD SVG 1.1//EN" "http://www.w3.org/Graphics/SVG/1.1/DTD/svg11.dtd"><svg t="1734942631063" class="icon" viewBox="0 0 1024 1024" version="1.1" xmlns="http://www.w3.org/2000/svg" p-id="1633" xmlns:xlink="http://www.w3.org/1999/xlink" width="200" height="200"><path d="M975.936937 367.952897H767.985818a48.006221 48.006221 0 0 1 0-96.012443h82.645781a413.7977 413.7977 0 0 0-338.660001-175.984891 415.902239 415.902239 0 0 0-415.788479 415.959118 48.063101 48.063101 0 0 1-96.126202 0 511.914681 511.914681 0 0 1 511.914681-511.857802 510.151419 510.151419 0 0 1 415.959118 214.492252V127.97867a48.006221 48.006221 0 1 1 96.012443 0v191.968006a48.006221 48.006221 0 0 1-48.006222 48.006221zM48.063139 655.876465h208.007998a48.006221 48.006221 0 0 1 0 96.012442H172.742803a414.594012 414.594012 0 0 0 339.228795 175.928012 415.902239 415.902239 0 0 0 415.959118-415.902238 47.949342 47.949342 0 1 1 96.012443 0 511.914681 511.914681 0 0 1-511.914681 511.914681c-171.946453 0-323.35944-85.148475-415.902239-215.231684v87.309893a48.006221 48.006221 0 0 1-96.069322 0v-192.024885c0-26.448925 21.614175-48.006221 48.006222-48.006221z" fill="#0ea5e9" p-id="1634"></path></svg>