<?xml version="1.0" standalone="no"?><!DOCTYPE svg PUBLIC "-//W3C//DTD SVG 1.1//EN" "http://www.w3.org/Graphics/SVG/1.1/DTD/svg11.dtd"><svg t="1733643945604" class="icon" viewBox="0 0 1024 1024" version="1.1" xmlns="http://www.w3.org/2000/svg" p-id="1003" xmlns:xlink="http://www.w3.org/1999/xlink" width="200" height="200"><path d="M512 46.848a464.896 464.896 0 1 0 464.896 464.896A465.408 465.408 0 0 0 512 46.848z m0 858.112a393.216 393.216 0 1 1 393.216-393.216 393.6256 393.6256 0 0 1-393.216 393.216z" fill="#ffffff" p-id="1004"></path><path d="M701.7984 450.9696L479.2832 322.56a70.1952 70.1952 0 0 0-105.2672 60.7232V640a69.9904 69.9904 0 0 0 105.2672 60.7744l222.5152-128.4608a70.1952 70.1952 0 0 0 0-121.5488z m-256 186.624V385.8944L663.7056 512z" fill="#ffffff" p-id="1005"></path></svg>